<svg width="300" height="301" viewBox="0 0 300 301" fill="none" xmlns="http://www.w3.org/2000/svg">
<path fill-rule="evenodd" clip-rule="evenodd" d="M34.8 244.912C16.6807 213.529 27.4335 173.399 58.8169 155.28C90.2004 137.16 130.33 147.913 148.449 179.296C166.569 210.68 155.816 250.81 124.433 268.929C93.0491 287.048 52.9192 276.296 34.8 244.912ZM40.5352 241.566C24.2428 213.346 33.9114 177.263 62.1307 160.97C90.3499 144.678 126.434 154.346 142.726 182.566C159.019 210.785 149.35 246.869 121.131 263.161C92.9114 279.453 56.8276 269.785 40.5352 241.566Z" fill="#F3F2F8"/>
<rect width="104.8" height="104.8" rx="52.4" transform="matrix(0.5 0.866025 0.866025 -0.5 20 192.658)" fill="#F3F2F8"/>
<path fill-rule="evenodd" clip-rule="evenodd" d="M173.023 244.912C154.903 213.529 165.656 173.399 197.04 155.28C228.423 137.16 268.553 147.913 286.672 179.296C304.791 210.68 294.039 250.81 262.655 268.929C231.272 287.048 191.142 276.296 173.023 244.912ZM178.738 241.566C162.446 213.346 172.114 177.263 200.334 160.97C228.553 144.678 264.637 154.346 280.929 182.566C297.222 210.785 287.553 246.869 259.334 263.161C231.114 279.453 195.031 269.785 178.738 241.566Z" fill="#F3F2F8"/>
<rect width="104.8" height="104.8" rx="52.4" transform="matrix(0.5 0.866025 0.866025 -0.5 158.223 192.658)" fill="#F3F2F8"/>
<path fill-rule="evenodd" clip-rule="evenodd" d="M103.941 124.912C85.8214 93.5286 96.5741 53.3987 127.958 35.2795C159.341 17.1603 199.471 27.913 217.59 59.2965C235.709 90.6799 224.957 130.81 193.573 148.929C162.19 167.048 122.06 156.296 103.941 124.912ZM109.676 121.566C93.3834 93.3463 103.052 57.2625 131.271 40.9701C159.491 24.6777 195.574 34.3463 211.867 62.5656C228.159 90.7849 218.491 126.869 190.271 143.161C162.052 159.453 125.968 149.785 109.676 121.566Z" fill="#F3F2F8"/>
<rect width="104.8" height="104.8" rx="52.4" transform="matrix(0.5 0.866025 0.866025 -0.5 89.1406 72.6576)" fill="#F3F2F8"/>
</svg>
