<?xml version="1.0" standalone="no"?>
<!DOCTYPE svg PUBLIC "-//W3C//DTD SVG 20010904//EN"
 "http://www.w3.org/TR/2001/REC-SVG-20010904/DTD/svg10.dtd">
<svg version="1.0" xmlns="http://www.w3.org/2000/svg"
 width="638.000000pt" height="638.000000pt" viewBox="0 0 638.000000 638.000000"
 preserveAspectRatio="xMidYMid meet">
<metadata>
Created by potrace 1.14, written by Peter Selinger 2001-2017
</metadata>
<g transform="translate(0.000000,638.000000) scale(0.100000,-0.100000)"
fill="#000000" stroke="none">
<path d="M3097 5704 c-1 -2 -25 -5 -52 -9 -45 -5 -63 -8 -130 -20 -11 -2 -22
-4 -25 -6 -3 -1 -9 -3 -15 -4 -5 -2 -12 -4 -15 -5 -3 -1 -12 -3 -20 -5 -75
-16 -339 -136 -353 -161 -4 -8 -12 -14 -18 -14 -29 0 -299 -241 -299 -268 0
-4 -10 -18 -23 -32 -99 -110 -210 -365 -248 -570 -23 -127 -15 -388 15 -505 2
-5 6 -23 10 -40 4 -16 14 -46 21 -65 7 -19 13 -37 14 -40 4 -29 79 -190 124
-265 19 -31 51 -79 57 -85 3 -3 30 -34 60 -70 51 -60 120 -132 120 -125 0 1
16 -13 36 -32 40 -38 155 -115 224 -151 102 -53 271 -114 355 -127 17 -3 43
-8 58 -11 172 -35 459 -7 647 63 81 31 194 85 198 95 2 4 9 8 15 8 7 0 35 16
62 35 28 20 61 43 75 53 14 9 32 24 41 34 9 10 19 18 23 18 23 0 246 262 246
289 0 6 3 11 8 11 8 0 10 5 71 127 53 108 101 264 118 388 8 56 7 310 -1 360
-11 65 -14 83 -20 103 -3 9 -7 28 -10 42 -7 40 -50 159 -86 235 -37 78 -149
255 -162 255 -4 0 -8 5 -8 10 0 16 -147 161 -220 217 -175 135 -422 235 -635
259 -60 6 -253 12 -258 8z"/>
<path d="M1696 3303 c-2 -2 -23 -6 -47 -8 -24 -3 -55 -9 -69 -12 -14 -3 -34
-7 -45 -8 -11 -1 -37 -7 -58 -14 -21 -7 -44 -14 -50 -15 -11 -1 -47 -14 -102
-36 -90 -35 -259 -132 -319 -181 -52 -43 -202 -193 -227 -228 -13 -18 -32 -42
-42 -52 -9 -11 -18 -24 -20 -31 -1 -7 -9 -20 -17 -29 -24 -28 -100 -186 -127
-263 -24 -71 -41 -135 -50 -191 -3 -16 -9 -50 -14 -75 -9 -48 -5 -339 6 -380
3 -14 8 -36 11 -50 15 -76 27 -115 68 -222 44 -112 142 -286 168 -296 4 -2 8
-9 8 -16 0 -6 9 -18 20 -26 11 -8 20 -18 20 -22 0 -4 38 -45 84 -91 81 -81
228 -189 294 -218 17 -8 32 -17 32 -21 0 -5 8 -8 18 -8 10 0 22 -4 27 -9 24
-21 188 -76 285 -95 14 -3 35 -7 47 -10 122 -27 352 -20 498 15 22 5 51 12 64
15 13 3 34 10 45 16 12 6 22 11 24 10 1 -1 3 -2 5 -1 1 0 11 2 21 4 52 10 313
153 361 198 7 7 39 34 72 62 32 27 81 76 108 108 28 33 55 64 60 71 41 44 185
296 170 296 -4 0 -3 6 2 13 10 11 44 106 42 117 0 3 4 18 10 33 6 15 13 40 16
55 3 15 7 38 10 52 24 109 24 343 1 465 -4 19 -24 99 -30 120 -1 6 -8 30 -15
55 -19 67 -92 218 -146 301 -84 130 -186 241 -301 329 -32 25 -60 48 -62 53
-2 4 -8 7 -14 7 -5 0 -23 10 -40 21 -111 80 -359 167 -528 186 -50 5 -270 10
-274 6z"/>
<path d="M4420 3294 c-131 -18 -211 -37 -277 -65 -24 -10 -43 -17 -43 -15 0 3
-27 -9 -60 -25 -33 -16 -65 -29 -70 -29 -6 0 -10 -4 -10 -10 0 -5 -5 -10 -12
-10 -26 0 -209 -134 -285 -207 -71 -70 -179 -204 -209 -258 -56 -104 -73 -138
-93 -190 -13 -33 -27 -69 -31 -80 -5 -11 -12 -36 -16 -55 -3 -19 -11 -41 -16
-47 -6 -7 -8 -13 -5 -13 3 0 1 -17 -4 -37 -28 -120 -30 -325 -4 -498 7 -49 53
-202 80 -266 28 -65 102 -206 115 -219 3 -3 27 -34 53 -70 184 -250 468 -429
788 -496 90 -19 376 -26 454 -11 84 16 211 50 223 59 6 6 12 8 12 5 0 -11 201
80 211 96 3 5 9 7 12 5 12 -6 182 121 252 189 60 58 87 89 158 178 91 115 184
332 224 518 25 115 24 380 -1 497 -42 198 -147 435 -233 528 -7 7 -13 16 -13
20 0 4 -20 30 -45 57 -25 28 -49 55 -54 60 -18 22 -142 130 -158 139 -10 5
-20 12 -23 16 -22 30 -223 134 -330 170 -204 70 -399 91 -590 64z"/>
</g>
</svg>
